<svg xmlns="http://www.w3.org/2000/svg" version="1.1" xmlns:xlink="http://www.w3.org/1999/xlink" xmlns:svgjs="http://svgjs.dev/svgjs" width="2000" height="1247" viewBox="0 0 2000 1247"><g transform="matrix(1,0,0,1,-1.2121212121212466,0.504858299595071)"><svg viewBox="0 0 396 247" data-background-color="#ffffff" preserveAspectRatio="xMidYMid meet" height="1247" width="2000" xmlns="http://www.w3.org/2000/svg" xmlns:xlink="http://www.w3.org/1999/xlink"><g id="tight-bounds" transform="matrix(1,0,0,1,0.2400000000000091,-0.09999999999999432)"><svg viewBox="0 0 395.52 247.2" height="247.2" width="395.52"><g><svg></svg></g><g><svg viewBox="0 0 395.52 247.2" height="247.2" width="395.52"><g transform="matrix(1,0,0,1,114.62952935064934,47.215199999999996)"><svg viewBox="0 0 166.2609412987013 152.7696" height="152.7696" width="166.2609412987013"><g><svg viewBox="0 0 166.2609412987013 152.7696" height="152.7696" width="166.2609412987013"><g><svg viewBox="0 0 166.2609412987013 152.7696" height="152.7696" width="166.2609412987013"><g><svg viewBox="0 0 166.2609412987013 152.7696" height="152.7696" width="166.2609412987013"><g id="textblocktransform"><svg viewBox="0 0 166.2609412987013 152.7696" height="152.7696" width="166.2609412987013" id="textblock"><g><svg viewBox="0 0 166.2609412987013 152.7696" height="152.7696" width="166.2609412987013"><g transform="matrix(1,0,0,1,0,0)"><svg width="166.2609412987013" viewBox="1.75 -38.5 41.900001525878906 38.5" height="152.7696" data-palette-color="#bb84e8"><path d="M22.6 0L1.75 0 1.75-2Q3.4-2.05 4.42-2.27 5.45-2.5 6.03-3.13 6.6-3.75 6.8-4.83 7-5.9 7-7.7L7-7.7 7-30.8Q7-32.55 6.85-33.63 6.7-34.7 6.2-35.33 5.7-35.95 4.83-36.18 3.95-36.4 2.55-36.5L2.55-36.5 2.55-38.5 21.55-38.5Q26.35-38.5 30.4-37 34.45-35.5 37.4-32.85 40.35-30.2 42-26.55 43.65-22.9 43.65-18.6L43.65-18.6Q43.65-14.5 42.1-11.08 40.55-7.65 37.77-5.2 35-2.75 31.13-1.38 27.25 0 22.6 0L22.6 0ZM21.45-35.45L15.2-35.45Q14.35-35.45 14.35-34.6L14.35-34.6 14.35-8.75Q14.35-5.85 16.15-4.45 17.95-3.05 21.7-3.05L21.7-3.05Q28.25-3.05 31.78-7 35.3-10.95 35.3-18.5L35.3-18.5Q35.3-22.5 34.35-25.65 33.4-28.8 31.6-30.98 29.8-33.15 27.23-34.3 24.65-35.45 21.45-35.45L21.45-35.45Z" opacity="1" transform="matrix(1,0,0,1,0,0)" fill="#bb84e8" class="wordmark-text-0" data-fill-palette-color="primary" id="text-0"></path></svg></g></svg></g></svg></g></svg></g></svg></g></svg></g></svg></g><path d="M296.931 41.215L296.931 0 49.731 0 49.731 247.2 296.931 247.2 296.931 205.985 283.154 205.985 283.154 233.423 63.508 233.423 63.508 13.777 283.154 13.777 283.154 41.215Z" fill="#bb84e8" stroke="transparent" data-fill-palette-color="primary"></path></svg></g><defs></defs></svg><rect width="395.52" height="247.2" fill="none" stroke="none" visibility="hidden"></rect></g></svg></g></svg>